{
	"asset":{
		"generator":"Khronos glTF Blender I/O v4.3.47",
		"version":"2.0"
	},
	"scene":0,
	"scenes":[
		{
			"name":"Scene",
			"nodes":[
				0
			]
		}
	],
	"nodes":[
		{
			"mesh":0,
			"name":"MiR100",
			"rotation":[
				0.5087372660636902,
				-0.49989837408065796,
				0.5001015663146973,
				0.49110734462738037
			]
		}
	],
	"materials":[
		{
			"doubleSided":true,
			"name":"mat_0",
			"pbrMetallicRoughness":{
				"baseColorFactor":[
					0.5906188488006592,
					0.6375969052314758,
					0.8549926280975342,
					1
				]
			}
		},
		{
			"doubleSided":true,
			"name":"mat_1",
			"pbrMetallicRoughness":{
				"baseColorFactor":[
					0.3762621581554413,
					0.3419143855571747,
					0.3049873411655426,
					1
				]
			}
		},
		{
			"doubleSided":true,
			"name":"mat_2",
			"pbrMetallicRoughness":{
				"baseColorFactor":[
					0.021219007670879364,
					0.021219007670879364,
					0.021219007670879364,
					1
				]
			}
		},
		{
			"doubleSided":true,
			"name":"mat_3"
		}
	],
	"meshes":[
		{
			"name":"MiR100",
			"primitives":[
				{
					"attributes":{
						"POSITION":0,
						"NORMAL":1
					},
					"indices":2,
					"material":0
				},
				{
					"attributes":{
						"POSITION":3,
						"NORMAL":4
					},
					"indices":5,
					"material":1
				},
				{
					"attributes":{
						"POSITION":6,
						"NORMAL":7
					},
					"indices":8,
					"material":2
				},
				{
					"attributes":{
						"POSITION":9,
						"NORMAL":10
					},
					"indices":11,
					"material":3
				}
			]
		}
	],
	"accessors":[
		{
			"bufferView":0,
			"componentType":5126,
			"count":377938,
			"max":[
				0.4450679421424866,
				0.2548340857028961,
				0.28527402877807617
			],
			"min":[
				-0.4165477752685547,
				-0.2870829105377197,
				0.01779980957508087
			],
			"type":"VEC3"
		},
		{
			"bufferView":1,
			"componentType":5126,
			"count":377938,
			"type":"VEC3"
		},
		{
			"bufferView":2,
			"componentType":5125,
			"count":782655,
			"type":"SCALAR"
		},
		{
			"bufferView":3,
			"componentType":5126,
			"count":224360,
			"max":[
				0.44658362865448,
				0.2900548279285431,
				0.35655224323272705
			],
			"min":[
				-0.4434831142425537,
				-0.2830243408679962,
				-0.01151132583618164
			],
			"type":"VEC3"
		},
		{
			"bufferView":4,
			"componentType":5126,
			"count":224360,
			"type":"VEC3"
		},
		{
			"bufferView":5,
			"componentType":5125,
			"count":569490,
			"type":"SCALAR"
		},
		{
			"bufferView":6,
			"componentType":5126,
			"count":68833,
			"max":[
				0.4452206492424011,
				0.28886446356773376,
				0.3646339178085327
			],
			"min":[
				-0.4431820511817932,
				-0.28693678975105286,
				-0.010845497250556946
			],
			"type":"VEC3"
		},
		{
			"bufferView":7,
			"componentType":5126,
			"count":68833,
			"type":"VEC3"
		},
		{
			"bufferView":8,
			"componentType":5125,
			"count":156243,
			"type":"SCALAR"
		},
		{
			"bufferView":9,
			"componentType":5126,
			"count":21917,
			"max":[
				0.4516374468803406,
				0.294781893491745,
				0.31052064895629883
			],
			"min":[
				-0.44696760177612305,
				-0.2899712324142456,
				-0.012523338198661804
			],
			"type":"VEC3"
		},
		{
			"bufferView":10,
			"componentType":5126,
			"count":21917,
			"type":"VEC3"
		},
		{
			"bufferView":11,
			"componentType":5123,
			"count":58800,
			"type":"SCALAR"
		}
	],
	"bufferViews":[
		{
			"buffer":0,
			"byteLength":4535256,
			"byteOffset":0,
			"target":34962
		},
		{
			"buffer":0,
			"byteLength":4535256,
			"byteOffset":4535256,
			"target":34962
		},
		{
			"buffer":0,
			"byteLength":3130620,
			"byteOffset":9070512,
			"target":34963
		},
		{
			"buffer":0,
			"byteLength":2692320,
			"byteOffset":12201132,
			"target":34962
		},
		{
			"buffer":0,
			"byteLength":2692320,
			"byteOffset":14893452,
			"target":34962
		},
		{
			"buffer":0,
			"byteLength":2277960,
			"byteOffset":17585772,
			"target":34963
		},
		{
			"buffer":0,
			"byteLength":825996,
			"byteOffset":19863732,
			"target":34962
		},
		{
			"buffer":0,
			"byteLength":825996,
			"byteOffset":20689728,
			"target":34962
		},
		{
			"buffer":0,
			"byteLength":624972,
			"byteOffset":21515724,
			"target":34963
		},
		{
			"buffer":0,
			"byteLength":263004,
			"byteOffset":22140696,
			"target":34962
		},
		{
			"buffer":0,
			"byteLength":263004,
			"byteOffset":22403700,
			"target":34962
		},
		{
			"buffer":0,
			"byteLength":117600,
			"byteOffset":22666704,
			"target":34963
		}
	],
	"buffers":[
		{
			"byteLength":22784304,
			"uri":"mir_100.bin"
		}
	]
}
